<?xml version="1.0" encoding="utf-8"?>
<!-- Generator: Adobe Illustrator 16.0.0, SVG Export Plug-In . SVG Version: 6.00 Build 0)  -->
<!DOCTYPE svg PUBLIC "-//W3C//DTD SVG 1.1//EN" "http://www.w3.org/Graphics/SVG/1.1/DTD/svg11.dtd">
<svg version="1.1" id="Layer_1" xmlns="http://www.w3.org/2000/svg" xmlns:xlink="http://www.w3.org/1999/xlink" x="0px" y="0px"
	 width="40px" height="40px" viewBox="0 0 40 40" enable-background="new 0 0 40 40" xml:space="preserve">
<path display="none" fill="#44ABE0" d="M20.338,14.762c3.205-3.503,5.852-6.461,8.571-9.347c2.021-2.144,4.351-3.45,6.825-0.784
	c2.363,2.544,1.219,4.915-0.957,6.931c-2.797,2.593-5.668,5.104-9.383,8.435c3.769,3.446,6.838,6.192,9.832,9.019
	c2.244,2.119,2.918,4.551,0.447,6.899c-2.424,2.305-4.543,1.002-6.451-0.979c-2.771-2.877-5.553-5.744-8.917-9.225
	c-2.911,3.037-5.592,5.877-8.322,8.669c-2.002,2.05-4.391,3.586-6.896,1.172c-2.654-2.562-1.373-5.099,0.949-7.278
	c2.666-2.506,5.317-5.026,9.191-8.691c-3.59-3.104-6.84-5.852-10.016-8.683C3.115,9.028,2.081,6.726,4.346,4.43
	c2.339-2.371,4.788-1.678,6.915,0.6C14.095,8.063,16.925,11.102,20.338,14.762z"/>
<path fill="#0F3338" d="M38.062,19.426c0.026,10.09-8.097,18.49-17.927,18.538c-9.623,0.046-18.156-8.593-18.2-18.433
	C1.893,9.71,10.371,1.041,20.037,1.024C29.895,1.007,38.036,9.317,38.062,19.426z M20.074,8.619
	c-6.153,0.001-10.92,4.69-10.955,10.779C9.084,25.504,13.8,30.273,19.926,30.33c6.248,0.057,11.416-4.971,11.303-10.992
	C31.117,13.384,26.158,8.618,20.074,8.619z"/>
</svg>
